<?xml version="1.0" standalone="no"?>
<!DOCTYPE svg PUBLIC "-//W3C//DTD SVG 20010904//EN"
 "http://www.w3.org/TR/2001/REC-SVG-20010904/DTD/svg10.dtd">
<svg version="1.0" xmlns="http://www.w3.org/2000/svg"
 width="365.000000pt" height="152.000000pt" viewBox="0 0 365.000000 152.000000"
 preserveAspectRatio="xMidYMid meet">

<g transform="translate(0.000000,152.000000) scale(0.100000,-0.100000)"
fill="#000000" stroke="none">
<path d="M0 760 l0 -760 1825 0 1825 0 0 760 0 760 -1825 0 -1825 0 0 -760z
m2961 319 c17 -17 19 -34 19 -196 l0 -178 33 -15 c29 -14 32 -19 32 -60 0 -41
-3 -46 -32 -60 -27 -13 -33 -21 -33 -49 0 -47 -24 -71 -70 -71 -45 0 -67 22
-72 70 l-3 35 -109 3 c-61 1 -116 7 -122 13 -15 13 -34 4 -34 -16 0 -25 -60
-83 -97 -96 -21 -7 -72 -10 -127 -7 -100 4 -130 17 -169 72 -21 29 -22 43 -25
234 -3 190 -2 205 18 247 35 71 75 90 195 90 88 0 105 -3 139 -24 62 -39 76
-81 76 -243 0 -76 3 -138 8 -138 4 0 25 31 46 68 153 264 190 321 217 332 15
7 40 31 56 53 l28 42 3 -43 c2 -26 11 -51 23 -63z m-2245 0 c10 -9 14 -39 14
-120 l0 -109 80 0 80 0 0 110 c0 106 1 110 25 126 27 17 76 14 102 -7 10 -9
13 -71 13 -302 0 -326 0 -327 -69 -327 -62 0 -65 7 -71 137 l-5 118 -77 3 -78
3 0 -112 c0 -129 -9 -149 -68 -149 -72 0 -72 -2 -72 326 0 292 0 293 23 309
24 18 78 15 103 -6z m493 11 c10 -5 44 -70 77 -145 31 -75 62 -134 67 -132 5
1 35 63 66 136 63 147 72 157 146 147 21 -2 45 -13 52 -22 10 -14 13 -86 13
-299 0 -320 -1 -325 -71 -325 -69 0 -79 20 -80 158 l0 117 -33 -71 c-35 -74
-47 -84 -99 -84 -45 0 -52 7 -89 85 l-33 70 -5 -121 c-3 -82 -9 -126 -19 -138
-17 -20 -80 -21 -107 -2 -18 14 -19 29 -19 306 l0 292 24 19 c25 20 81 25 110
9z m578 -5 c12 -8 53 -71 93 -139 107 -185 99 -183 100 -28 0 73 5 142 10 152
15 27 74 36 105 16 l25 -16 0 -300 c0 -286 -1 -300 -19 -310 -31 -16 -79 -12
-99 8 -11 11 -54 81 -98 156 l-79 137 -5 -141 c-6 -160 -11 -170 -81 -170 -68
0 -69 6 -69 325 0 288 2 304 40 318 28 10 55 7 77 -8z"/>
<path d="M2281 1037 c-19 -6 -44 -25 -55 -40 -20 -27 -21 -41 -21 -221 0 -211
5 -235 57 -262 16 -9 57 -14 105 -14 150 0 163 23 163 275 0 194 -4 213 -53
249 -34 25 -144 33 -196 13z m168 -42 c16 -8 31 -25 35 -37 3 -13 6 -100 6
-194 0 -158 -2 -173 -21 -198 -19 -24 -26 -26 -98 -26 -125 0 -121 -7 -121
230 l0 199 26 20 c32 26 130 29 173 6z"/>
<path d="M2307 954 c-4 -4 -7 -88 -7 -186 l0 -178 65 0 65 0 -2 183 -3 182
-55 3 c-31 2 -59 0 -63 -4z"/>
<path d="M2869 1038 c-24 -19 -239 -387 -239 -409 0 -17 11 -19 128 -21 l127
-3 3 -52 c3 -45 6 -53 23 -53 16 0 19 7 19 55 l0 55 36 0 c28 0 35 3 32 18 -2
11 -14 18 -35 20 l-33 3 -2 197 c-3 189 -4 197 -23 200 -11 1 -27 -3 -36 -10z
m21 -213 l0 -175 -109 0 -110 0 90 153 c107 179 118 197 124 197 3 0 5 -79 5
-175z"/>
<path d="M2793 754 l-32 -54 39 0 40 0 0 49 c0 28 -3 52 -7 54 -5 3 -22 -19
-40 -49z"/>
<path d="M647 1044 c-4 -4 -7 -128 -7 -276 0 -260 1 -268 20 -268 18 0 20 8
22 128 l3 127 125 0 125 0 3 -127 c2 -120 4 -128 22 -128 20 0 20 6 18 273 -3
234 -5 272 -18 272 -12 0 -15 -22 -18 -122 l-3 -123 -129 0 -129 0 -3 122 c-3
113 -10 142 -31 122z"/>
<path d="M1137 1044 c-4 -4 -7 -128 -7 -276 0 -261 0 -268 20 -268 19 0 20 7
20 237 0 130 3 234 6 231 3 -3 38 -82 79 -174 100 -231 97 -231 195 0 40 96
77 173 82 170 4 -3 8 -109 8 -235 0 -214 1 -230 18 -227 16 3 17 25 20 271 2
241 1 268 -14 274 -9 3 -24 2 -33 -4 -9 -5 -52 -92 -95 -192 -44 -100 -83
-178 -87 -174 -4 4 -43 89 -86 188 -61 141 -83 181 -99 183 -11 2 -23 0 -27
-4z"/>
<path d="M1725 1037 c-3 -7 -4 -129 -3 -272 3 -238 4 -260 21 -263 16 -3 17
12 17 217 0 124 4 221 9 221 5 0 60 -87 122 -192 133 -229 146 -248 165 -248
12 0 14 40 12 273 -3 234 -5 272 -18 272 -13 0 -16 -34 -20 -225 l-5 -225 -89
150 c-49 83 -107 182 -130 220 -49 85 -70 103 -81 72z"/>
</g>
</svg>
