<svg xmlns="http://www.w3.org/2000/svg" width="332" height="205" viewBox="0 0 332 205" version="1.1"><path d="M 0 102.503 L 0 205.006 166.250 204.753 L 332.500 204.500 332.755 102.250 L 333.009 0 166.505 0 L 0 0 0 102.503 M 0.481 103 C 0.481 159.375, 0.602 182.437, 0.750 154.250 C 0.897 126.062, 0.897 79.937, 0.750 51.750 C 0.602 23.562, 0.481 46.625, 0.481 103 M 167.091 49.506 C 163.567 50.294, 160.192 51.112, 159.591 51.322 C 158.991 51.533, 156.271 51.052, 153.547 50.254 C 150.532 49.370, 145.837 48.945, 141.547 49.167 C 135.486 49.481, 133.811 50.008, 129.578 52.933 C 126.870 54.803, 124.170 56.316, 123.578 56.296 C 122.985 56.275, 119.826 54.625, 116.559 52.629 C 111.447 49.507, 109.771 49.001, 104.559 49.006 C 95.560 49.014, 91.622 50.455, 87.527 55.240 C 81.656 62.098, 81 66.046, 81 94.500 C 81 123.556, 81.773 128.008, 87.877 134.113 C 91.974 138.210, 97.019 139.986, 104.581 139.994 C 109.503 140, 114.619 138.059, 121.043 133.747 C 123.531 132.078, 123.708 132.123, 129.043 135.770 C 134.331 139.385, 134.763 139.497, 143 139.408 C 147.675 139.358, 153.300 138.895, 155.500 138.381 C 158.289 137.728, 161.004 137.831, 164.468 138.722 C 172.379 140.757, 179.744 140.333, 185.849 137.490 C 192.495 134.397, 192.867 134.401, 200.922 137.668 C 213.808 142.896, 230.253 140.553, 234.970 132.818 C 238.214 127.500, 238.442 123.837, 235.985 116.456 C 233.920 110.250, 233.862 109.380, 235.132 103.649 C 235.915 100.118, 236.462 92.179, 236.417 85 C 236.352 74.434, 235.982 71.581, 234.027 66.559 C 231.260 59.455, 224.321 52.089, 218.500 50.077 C 212.546 48.019, 175.577 47.609, 167.091 49.506 M 97 94.500 L 97 127 105 127 L 113 127 113 114.500 L 113 102 125 102 L 137 102 137 114.500 L 137 127 145 127 L 153 127 153 94.500 L 153 62 145 62 L 137 62 137 74.500 L 137 87 126.582 87 C 120.852 87, 115.452 87.273, 114.582 87.607 C 113.189 88.141, 113 86.648, 113 75.107 L 113 62 105 62 L 97 62 97 94.500 M 168.058 94.500 L 167.975 127 176.097 127 L 184.219 127 183.501 116.010 C 182.909 106.955, 183.033 104.925, 184.205 104.475 C 185.104 104.130, 189.816 108.174, 197.008 115.465 L 208.389 127 219.261 127 L 230.133 127 221.566 118.891 C 216.855 114.431, 213 110.416, 213 109.969 C 213 109.521, 214.574 108.636, 216.497 108.001 C 222.561 106, 223 104.514, 223 86 C 223 61.410, 223.784 62, 191.120 62 L 168.140 62 168.058 94.500 M 99 94 L 99 124.100 104.750 123.800 L 110.500 123.500 110.781 111.250 L 111.062 99 125.531 99 L 140 99 140 111.500 L 140 124 145.500 124 L 151 124 151 94 L 151 64 145.500 64 L 140 64 140 77 L 140 90 127.655 90 C 116.366 90, 115.147 90.180, 113.405 92.109 C 111.521 94.195, 111.495 94.058, 111 79.359 L 110.500 64.500 104.750 64.200 L 99 63.900 99 94 M 170 68.500 L 170 73 173.703 73 L 177.406 73 173.703 76.792 L 170 80.584 170 102.292 L 170 124 175.500 124 L 181 124 181 98.500 L 181 73 195.500 73 L 210 73 210 85 L 210 97 197.500 97 C 188.088 97, 185 97.312, 185 98.265 C 185 98.961, 190.519 105.036, 197.264 111.765 L 209.529 124 215.764 124 C 220.026 124, 222 123.611, 222 122.772 C 222 122.097, 218.523 118.047, 214.273 113.772 L 206.547 106 211.773 106 C 221.098 106, 222.358 103.002, 221.833 82.064 C 221.504 68.971, 221.468 68.795, 218.694 66.411 C 215.905 64.015, 215.750 64, 192.944 64 L 170 64 170 68.500 M 183.422 78.344 C 183.138 79.083, 183.040 83.020, 183.203 87.094 L 183.500 94.500 195.750 94.781 L 208 95.062 208 86.031 L 208 77 195.969 77 C 186.819 77, 183.814 77.322, 183.422 78.344" stroke="none" fill="#060409" fill-rule="evenodd"/><path d="M 0 102.503 L 0 205.006 166.250 204.753 L 332.500 204.500 332.755 102.250 L 333.009 0 166.505 0 L 0 0 0 102.503 M 0.481 103 C 0.481 159.375, 0.602 182.437, 0.750 154.250 C 0.897 126.062, 0.897 79.937, 0.750 51.750 C 0.602 23.562, 0.481 46.625, 0.481 103 M 167.091 49.506 C 163.567 50.294, 160.192 51.112, 159.591 51.322 C 158.991 51.533, 156.271 51.052, 153.547 50.254 C 150.532 49.370, 145.837 48.945, 141.547 49.167 C 135.486 49.481, 133.811 50.008, 129.578 52.933 C 126.870 54.803, 124.170 56.316, 123.578 56.296 C 122.985 56.275, 119.826 54.625, 116.559 52.629 C 111.447 49.507, 109.771 49.001, 104.559 49.006 C 95.560 49.014, 91.622 50.455, 87.527 55.240 C 81.656 62.098, 81 66.046, 81 94.500 C 81 123.556, 81.773 128.008, 87.877 134.113 C 91.974 138.210, 97.019 139.986, 104.581 139.994 C 109.503 140, 114.619 138.059, 121.043 133.747 C 123.531 132.078, 123.708 132.123, 129.043 135.770 C 134.331 139.385, 134.763 139.497, 143 139.408 C 147.675 139.358, 153.300 138.895, 155.500 138.381 C 158.289 137.728, 161.004 137.831, 164.468 138.722 C 172.379 140.757, 179.744 140.333, 185.849 137.490 C 192.495 134.397, 192.867 134.401, 200.922 137.668 C 213.808 142.896, 230.253 140.553, 234.970 132.818 C 238.214 127.500, 238.442 123.837, 235.985 116.456 C 233.920 110.250, 233.862 109.380, 235.132 103.649 C 235.915 100.118, 236.462 92.179, 236.417 85 C 236.352 74.434, 235.982 71.581, 234.027 66.559 C 231.260 59.455, 224.321 52.089, 218.500 50.077 C 212.546 48.019, 175.577 47.609, 167.091 49.506 M 97 94.500 L 97 127 105 127 L 113 127 113 114.500 L 113 102 125 102 L 137 102 137 114.500 L 137 127 145 127 L 153 127 153 94.500 L 153 62 145 62 L 137 62 137 74.500 L 137 87 126.582 87 C 120.852 87, 115.452 87.273, 114.582 87.607 C 113.189 88.141, 113 86.648, 113 75.107 L 113 62 105 62 L 97 62 97 94.500 M 168.058 94.500 L 167.975 127 176.097 127 L 184.219 127 183.501 116.010 C 182.909 106.955, 183.033 104.925, 184.205 104.475 C 185.104 104.130, 189.816 108.174, 197.008 115.465 L 208.389 127 219.261 127 L 230.133 127 221.566 118.891 C 216.855 114.431, 213 110.416, 213 109.969 C 213 109.521, 214.574 108.636, 216.497 108.001 C 222.561 106, 223 104.514, 223 86 C 223 61.410, 223.784 62, 191.120 62 L 168.140 62 168.058 94.500 M 99 94 L 99 124.100 104.750 123.800 L 110.500 123.500 110.781 111.250 L 111.062 99 125.531 99 L 140 99 140 111.500 L 140 124 145.500 124 L 151 124 151 94 L 151 64 145.500 64 L 140 64 140 77 L 140 90 127.655 90 C 116.366 90, 115.147 90.180, 113.405 92.109 C 111.521 94.195, 111.495 94.058, 111 79.359 L 110.500 64.500 104.750 64.200 L 99 63.900 99 94 M 170 68.500 L 170 73 173.703 73 L 177.406 73 173.703 76.792 L 170 80.584 170 102.292 L 170 124 175.500 124 L 181 124 181 98.500 L 181 73 195.500 73 L 210 73 210 85 L 210 97 197.500 97 C 188.088 97, 185 97.312, 185 98.265 C 185 98.961, 190.519 105.036, 197.264 111.765 L 209.529 124 215.764 124 C 220.026 124, 222 123.611, 222 122.772 C 222 122.097, 218.523 118.047, 214.273 113.772 L 206.547 106 211.773 106 C 221.098 106, 222.358 103.002, 221.833 82.064 C 221.504 68.971, 221.468 68.795, 218.694 66.411 C 215.905 64.015, 215.750 64, 192.944 64 L 170 64 170 68.500 M 183.422 78.344 C 183.138 79.083, 183.040 83.020, 183.203 87.094 L 183.500 94.500 195.750 94.781 L 208 95.062 208 86.031 L 208 77 195.969 77 C 186.819 77, 183.814 77.322, 183.422 78.344" stroke="none" fill="#060409" fill-rule="evenodd"/><path d="M 0 102.503 L 0 205.006 166.250 204.753 L 332.500 204.500 332.755 102.250 L 333.009 0 166.505 0 L 0 0 0 102.503 M 0.481 103 C 0.481 159.375, 0.602 182.437, 0.750 154.250 C 0.897 126.062, 0.897 79.937, 0.750 51.750 C 0.602 23.562, 0.481 46.625, 0.481 103 M 167.091 49.506 C 163.567 50.294, 160.192 51.112, 159.591 51.322 C 158.991 51.533, 156.271 51.052, 153.547 50.254 C 150.532 49.370, 145.837 48.945, 141.547 49.167 C 135.486 49.481, 133.811 50.008, 129.578 52.933 C 126.870 54.803, 124.170 56.316, 123.578 56.296 C 122.985 56.275, 119.826 54.625, 116.559 52.629 C 111.447 49.507, 109.771 49.001, 104.559 49.006 C 95.560 49.014, 91.622 50.455, 87.527 55.240 C 81.656 62.098, 81 66.046, 81 94.500 C 81 123.556, 81.773 128.008, 87.877 134.113 C 91.974 138.210, 97.019 139.986, 104.581 139.994 C 109.503 140, 114.619 138.059, 121.043 133.747 C 123.531 132.078, 123.708 132.123, 129.043 135.770 C 134.331 139.385, 134.763 139.497, 143 139.408 C 147.675 139.358, 153.300 138.895, 155.500 138.381 C 158.289 137.728, 161.004 137.831, 164.468 138.722 C 172.379 140.757, 179.744 140.333, 185.849 137.490 C 192.495 134.397, 192.867 134.401, 200.922 137.668 C 213.808 142.896, 230.253 140.553, 234.970 132.818 C 238.214 127.500, 238.442 123.837, 235.985 116.456 C 233.920 110.250, 233.862 109.380, 235.132 103.649 C 235.915 100.118, 236.462 92.179, 236.417 85 C 236.352 74.434, 235.982 71.581, 234.027 66.559 C 231.260 59.455, 224.321 52.089, 218.500 50.077 C 212.546 48.019, 175.577 47.609, 167.091 49.506 M 97 94.500 L 97 127 105 127 L 113 127 113 114.500 L 113 102 125 102 L 137 102 137 114.500 L 137 127 145 127 L 153 127 153 94.500 L 153 62 145 62 L 137 62 137 74.500 L 137 87 126.582 87 C 120.852 87, 115.452 87.273, 114.582 87.607 C 113.189 88.141, 113 86.648, 113 75.107 L 113 62 105 62 L 97 62 97 94.500 M 168.058 94.500 L 167.975 127 176.097 127 L 184.219 127 183.501 116.010 C 182.909 106.955, 183.033 104.925, 184.205 104.475 C 185.104 104.130, 189.816 108.174, 197.008 115.465 L 208.389 127 219.261 127 L 230.133 127 221.566 118.891 C 216.855 114.431, 213 110.416, 213 109.969 C 213 109.521, 214.574 108.636, 216.497 108.001 C 222.561 106, 223 104.514, 223 86 C 223 61.410, 223.784 62, 191.120 62 L 168.140 62 168.058 94.500 M 99 94 L 99 124.100 104.750 123.800 L 110.500 123.500 110.781 111.250 L 111.062 99 125.531 99 L 140 99 140 111.500 L 140 124 145.500 124 L 151 124 151 94 L 151 64 145.500 64 L 140 64 140 77 L 140 90 127.655 90 C 116.366 90, 115.147 90.180, 113.405 92.109 C 111.521 94.195, 111.495 94.058, 111 79.359 L 110.500 64.500 104.750 64.200 L 99 63.900 99 94 M 170 68.500 L 170 73 173.703 73 L 177.406 73 173.703 76.792 L 170 80.584 170 102.292 L 170 124 175.500 124 L 181 124 181 98.500 L 181 73 195.500 73 L 210 73 210 85 L 210 97 197.500 97 C 188.088 97, 185 97.312, 185 98.265 C 185 98.961, 190.519 105.036, 197.264 111.765 L 209.529 124 215.764 124 C 220.026 124, 222 123.611, 222 122.772 C 222 122.097, 218.523 118.047, 214.273 113.772 L 206.547 106 211.773 106 C 221.098 106, 222.358 103.002, 221.833 82.064 C 221.504 68.971, 221.468 68.795, 218.694 66.411 C 215.905 64.015, 215.750 64, 192.944 64 L 170 64 170 68.500 M 183.422 78.344 C 183.138 79.083, 183.040 83.020, 183.203 87.094 L 183.500 94.500 195.750 94.781 L 208 95.062 208 86.031 L 208 77 195.969 77 C 186.819 77, 183.814 77.322, 183.422 78.344" stroke="none" fill="#060409" fill-rule="evenodd"/><path d="M 100 94 L 100 123 104.969 123 L 109.938 123 110.219 110.750 L 110.500 98.500 125.250 98.223 L 140 97.947 140 110.473 L 140 123 145 123 L 150 123 150 94 L 150 65 145 65 L 140 65 140 77.500 L 140 90 128.728 90 C 117.619 90, 117.402 90.045, 113.728 93.073 L 110 96.146 110 80.573 L 110 65 105 65 L 100 65 100 94 M 171.190 68.750 C 171.471 72.147, 171.813 72.547, 174.816 73 L 178.133 73.500 174.566 76.946 L 171 80.392 171 101.696 L 171 123 176 123 L 181 123 181 98 L 181 73 196 73 L 211 73 211 85.500 L 211 98 198.500 98 C 191.625 98, 186 98.345, 186 98.766 C 186 99.187, 191.294 104.812, 197.765 111.266 L 209.530 123 215.492 123 L 221.453 123 213.727 115.228 C 209.477 110.953, 206 106.903, 206 106.228 C 206 105.408, 207.804 105, 211.427 105 C 216.100 105, 217.143 104.633, 218.927 102.365 C 220.814 99.967, 221 98.390, 221 84.820 C 221 70.322, 220.932 69.841, 218.545 67.455 L 216.091 65 193.485 65 L 170.879 65 171.190 68.750 M 164.748 71 C 163.800 74.288, 163.814 114.776, 164.764 118 C 165.634 120.954, 166.735 80.779, 165.984 73.500 C 165.559 69.380, 165.341 68.940, 164.748 71 M 133.556 74.552 C 132.043 82.619, 123.578 86.602, 117.727 82 C 114.405 79.387, 114 79.468, 114.001 82.750 L 114.003 85.500 125.001 85.636 L 136 85.772 135.985 79.636 C 135.966 72.071, 134.570 69.148, 133.556 74.552 M 94.429 94.500 C 94.429 107.150, 94.573 112.187, 94.747 105.694 C 94.922 99.200, 94.921 88.850, 94.746 82.694 C 94.571 76.537, 94.428 81.850, 94.429 94.500 M 185 86.250 L 185 94 196 94 L 207 94 207 86.092 L 207 78.183 196 78.342 L 185.001 78.500 185 86.250 M 191.242 81.034 C 190 81.533, 188.441 83.133, 187.778 84.588 C 186.689 86.977, 186.842 87.467, 189.342 89.618 C 192.550 92.377, 195.632 92.647, 198.777 90.443 C 202.345 87.944, 201.634 83.423, 197.316 81.150 C 194.787 79.819, 194.290 79.809, 191.242 81.034 M 114 106 C 114 107.650, 114.450 109, 115 109 C 115.550 109, 116 108.622, 116 108.161 C 116 106.854, 120.767 105, 124.124 105 C 128.114 105, 132.633 109.527, 133.556 114.448 C 134.576 119.885, 135.966 116.911, 135.985 109.250 L 136 103 125 103 L 114 103 114 106 M 185 111.045 L 185 117.091 188.262 116.479 C 190.732 116.015, 192.371 116.440, 195.012 118.226 C 196.930 119.524, 199.175 120.997, 200 121.498 C 200.825 122, 197.939 118.493, 193.588 113.705 C 189.236 108.917, 185.524 105, 185.338 105 C 185.152 105, 185 107.720, 185 111.045 M 216.203 109.854 C 215.140 110.528, 215.140 110.858, 216.203 111.683 C 219.368 114.137, 220 114.116, 220 111.559 C 220 108.976, 218.587 108.341, 216.203 109.854" stroke="none" fill="#a47be1" fill-rule="evenodd"/><path d="M 167.091 49.506 C 163.567 50.294, 160.192 51.112, 159.591 51.322 C 158.991 51.533, 156.271 51.052, 153.547 50.254 C 150.532 49.370, 145.837 48.945, 141.547 49.167 C 135.486 49.481, 133.811 50.008, 129.578 52.933 C 126.870 54.803, 124.170 56.316, 123.578 56.296 C 122.985 56.275, 119.826 54.625, 116.559 52.629 C 111.447 49.507, 109.771 49.001, 104.559 49.006 C 95.560 49.014, 91.622 50.455, 87.527 55.240 C 81.656 62.098, 81 66.046, 81 94.500 C 81 123.556, 81.773 128.008, 87.877 134.113 C 91.974 138.210, 97.019 139.986, 104.581 139.994 C 109.503 140, 114.619 138.059, 121.043 133.747 C 123.531 132.078, 123.708 132.123, 129.043 135.770 C 134.331 139.385, 134.763 139.497, 143 139.408 C 147.675 139.358, 153.300 138.895, 155.500 138.381 C 158.289 137.728, 161.004 137.831, 164.468 138.722 C 172.379 140.757, 179.744 140.333, 185.849 137.490 C 192.495 134.397, 192.867 134.401, 200.922 137.668 C 213.808 142.896, 230.253 140.553, 234.970 132.818 C 238.214 127.500, 238.442 123.837, 235.985 116.456 C 233.920 110.250, 233.862 109.380, 235.132 103.649 C 235.915 100.118, 236.462 92.179, 236.417 85 C 236.352 74.434, 235.982 71.581, 234.027 66.559 C 231.260 59.455, 224.321 52.089, 218.500 50.077 C 212.546 48.019, 175.577 47.609, 167.091 49.506 M 97 94.500 L 97 127 105 127 L 113 127 113 114.500 L 113 102 125 102 L 137 102 137 114.500 L 137 127 145 127 L 153 127 153 94.500 L 153 62 145 62 L 137 62 137 74.500 L 137 87 126.582 87 C 120.852 87, 115.452 87.273, 114.582 87.607 C 113.189 88.141, 113 86.648, 113 75.107 L 113 62 105 62 L 97 62 97 94.500 M 168.058 94.500 L 167.975 127 176.097 127 L 184.219 127 183.501 116.010 C 182.909 106.955, 183.033 104.925, 184.205 104.475 C 185.104 104.130, 189.816 108.174, 197.008 115.465 L 208.389 127 219.261 127 L 230.133 127 221.566 118.891 C 216.855 114.431, 213 110.416, 213 109.969 C 213 109.521, 214.574 108.636, 216.497 108.001 C 222.561 106, 223 104.514, 223 86 C 223 61.410, 223.784 62, 191.120 62 L 168.140 62 168.058 94.500 M 99 94 L 99 124.100 104.750 123.800 L 110.500 123.500 110.781 111.277 L 111.061 99.053 125.281 98.736 L 139.500 98.420 125 98.460 L 110.500 98.500 110.219 110.750 L 109.938 123 104.969 123 L 100 123 100 94 L 100 65 105 65 L 110 65 110 80.543 L 110 96.085 113.454 93.330 C 115.353 91.814, 116.701 90.368, 116.450 90.116 C 116.198 89.865, 114.881 90.702, 113.524 91.978 L 111.055 94.297 110.778 79.398 L 110.500 64.500 104.750 64.200 L 99 63.900 99 94 M 144.750 64.737 L 150 65.105 150 94 L 150 122.895 144.750 123.263 L 139.500 123.630 145.250 123.815 L 151 124 151 94 L 151 64 145.250 64.185 L 139.500 64.370 144.750 64.737 M 170 68.500 C 170 70.975, 170.349 73, 170.776 73 C 171.203 73, 171.381 71.200, 171.171 69 L 170.790 65 193.440 65 L 216.091 65 218.545 67.455 C 219.895 68.805, 221 69.512, 221 69.027 C 221 68.542, 219.814 67.212, 218.365 66.073 C 215.874 64.113, 214.483 64, 192.865 64 L 170 64 170 68.500 M 164.748 71 C 163.800 74.288, 163.814 114.776, 164.764 118 C 165.634 120.954, 166.735 80.779, 165.984 73.500 C 165.559 69.380, 165.341 68.940, 164.748 71 M 133.556 74.552 C 132.043 82.619, 123.578 86.602, 117.727 82 C 114.405 79.387, 114 79.468, 114.001 82.750 L 114.003 85.500 125.001 85.636 L 136 85.772 135.985 79.636 C 135.966 72.071, 134.570 69.148, 133.556 74.552 M 221.397 85 C 221.397 92.975, 221.553 96.237, 221.743 92.250 C 221.932 88.263, 221.932 81.737, 221.743 77.750 C 221.553 73.763, 221.397 77.025, 221.397 85 M 94.429 94.500 C 94.429 107.150, 94.573 112.187, 94.747 105.694 C 94.922 99.200, 94.921 88.850, 94.746 82.694 C 94.571 76.537, 94.428 81.850, 94.429 94.500 M 173.703 76.792 L 170 80.584 170 102.292 L 170 124 175.750 123.815 L 181.500 123.630 176.250 123.263 L 171 122.895 171 101.740 L 171 80.584 174.703 76.792 C 176.740 74.706, 178.181 73, 177.906 73 C 177.631 73, 175.740 74.706, 173.703 76.792 M 210 85 L 210 97 197.500 97 C 188.088 97, 185 97.312, 185 98.265 C 185 98.961, 190.519 105.036, 197.264 111.765 L 209.529 124 215.764 124 C 220.026 124, 222 123.611, 222 122.772 C 222 122.097, 218.523 118.047, 214.273 113.772 L 206.547 106 211.773 106 C 216.979 106, 221 103.762, 221 100.865 C 221 100.241, 220.067 100.916, 218.927 102.365 C 217.143 104.633, 216.100 105, 211.427 105 C 207.804 105, 206 105.408, 206 106.228 C 206 106.903, 209.477 110.953, 213.727 115.228 L 221.453 123 215.492 123 L 209.530 123 197.765 111.266 C 191.294 104.812, 186 99.187, 186 98.766 C 186 98.345, 191.625 98, 198.500 98 L 211 98 211 85.500 C 211 78.625, 210.775 73, 210.500 73 C 210.225 73, 210 78.400, 210 85 M 183.422 78.344 C 183.138 79.083, 183.040 83.020, 183.203 87.094 L 183.500 94.500 195.750 94.781 L 208 95.062 208 86.031 L 208 77 195.969 77 C 186.819 77, 183.814 77.322, 183.422 78.344 M 185 86.250 L 185 94 196 94 L 207 94 207 86.092 L 207 78.183 196 78.342 L 185.001 78.500 185 86.250 M 191.242 81.034 C 190 81.533, 188.441 83.133, 187.778 84.588 C 186.689 86.977, 186.842 87.467, 189.342 89.618 C 192.550 92.377, 195.632 92.647, 198.777 90.443 C 202.345 87.944, 201.634 83.423, 197.316 81.150 C 194.787 79.819, 194.290 79.809, 191.242 81.034 M 114 106 C 114 107.650, 114.450 109, 115 109 C 115.550 109, 116 108.622, 116 108.161 C 116 106.854, 120.767 105, 124.124 105 C 128.114 105, 132.633 109.527, 133.556 114.448 C 134.576 119.885, 135.966 116.911, 135.985 109.250 L 136 103 125 103 L 114 103 114 106 M 185 111.045 L 185 117.091 188.262 116.479 C 190.732 116.015, 192.371 116.440, 195.012 118.226 C 196.930 119.524, 199.175 120.997, 200 121.498 C 200.825 122, 197.939 118.493, 193.588 113.705 C 189.236 108.917, 185.524 105, 185.338 105 C 185.152 105, 185 107.720, 185 111.045 M 216.203 109.854 C 215.140 110.528, 215.140 110.858, 216.203 111.683 C 219.368 114.137, 220 114.116, 220 111.559 C 220 108.976, 218.587 108.341, 216.203 109.854" stroke="none" fill="#060909" fill-rule="evenodd"/></svg>